<?xml version="1.0" encoding="UTF-8"?>
<svg xmlns="http://www.w3.org/2000/svg" xmlns:xlink="http://www.w3.org/1999/xlink" width="30pt" height="35pt" viewBox="0 0 30 35" version="1.1">
<g id="surface1">
<path style=" stroke:none;fill-rule:nonzero;fill:rgb(96.862745%,69.019608%,0%);fill-opacity:1;" d="M 23.386719 6.117188 C 22.609375 5.453125 21.761719 4.867188 20.851562 4.382812 C 20.675781 4.289062 20.445312 4.316406 20.296875 4.449219 C 20.152344 4.574219 20.125 4.785156 20.238281 4.945312 C 23.425781 9.40625 22.746094 15.171875 18.582031 18.957031 C 16.148438 21.164062 12.894531 22.382812 9.410156 22.382812 C 7.109375 22.386719 4.839844 21.832031 2.832031 20.769531 C 2.65625 20.675781 2.425781 20.699219 2.277344 20.835938 C 2.132812 20.960938 2.105469 21.171875 2.21875 21.332031 C 2.796875 22.140625 3.46875 22.878906 4.234375 23.53125 C 6.808594 25.761719 10.214844 26.988281 13.8125 26.988281 C 17.542969 26.988281 21.03125 25.683594 23.628906 23.316406 C 26.191406 20.988281 27.574219 17.921875 27.527344 14.667969 C 27.484375 11.421875 26.007812 8.382812 23.386719 6.117188 Z M 23.386719 6.117188 "/>
</g>
</svg>
