<?xml version="1.0" encoding="UTF-8"?>
<svg xmlns="http://www.w3.org/2000/svg" xmlns:xlink="http://www.w3.org/1999/xlink" width="30pt" height="36pt" viewBox="0 0 30 36" version="1.1">
<g id="surface1">
<path style=" stroke:none;fill-rule:nonzero;fill:rgb(98.823529%,76.078431%,10.588235%);fill-opacity:1;" d="M 28.105469 17.121094 L 25.417969 14.859375 L 26.847656 11.679688 L 23.429688 10.792969 L 23.3125 7.324219 L 19.84375 7.976562 L 18.199219 4.894531 L 15.367188 6.96875 L 12.535156 4.894531 L 10.886719 7.976562 L 7.417969 7.324219 L 7.300781 10.792969 L 3.886719 11.679688 L 5.3125 14.859375 L 2.625 17.121094 L 5.3125 19.382812 L 3.886719 22.558594 L 7.300781 23.441406 L 7.417969 26.921875 L 10.886719 26.265625 L 12.535156 29.347656 L 15.367188 27.265625 L 18.199219 29.347656 L 19.84375 26.265625 L 23.3125 26.921875 L 23.429688 23.441406 L 26.847656 22.558594 L 25.417969 19.382812 Z M 28.105469 17.121094 "/>
</g>
</svg>
